# xmcd CD database file
#
# Track frame offsets:
#	150
#	21210
#	37725
#	51350
#	65212
#	82927
#	115950
#	129225
#	146075
#	158097
#	172425
#	196672
#
# Disc length: 2773 seconds
#
# Revision: 1
# Processed by: cddbd v1.4PL0 Copyright (c) Steve Scherf et al.
# Submitted via: CDex 1.50Beta7
#
DISCID=a40ad30c
DTITLE=Ulli Bögershausen - private stories
DYEAR=2002
DGENRE=Acoustic
TTITLE0=Secret Story
TTITLE1=Pensive
TTITLE2=Steam
TTITLE3=No Rest in Tainan
TTITLE4=You Are the Sunshine of My Life
TTITLE5=Ulla
TTITLE6=On Tour
TTITLE7=Herbstallee
TTITLE8=Zvoncekova Koleda
TTITLE9=Besame Mucho
TTITLE10=So alt wie Nina
TTITLE11=Barchen
EXTD=YEAR: 2002
EXTT0=
EXTT1=
EXTT2=
EXTT3=
EXTT4=
EXTT5=
EXTT6=
EXTT7=
EXTT8=
EXTT9=
EXTT10=
EXTT11=
PLAYORDER=
